<?xml version="1.0" encoding="UTF-8"?><svg id="QQ_MSC" xmlns="http://www.w3.org/2000/svg" width="32px" height="32.00px" viewBox="0 0 30.8 30.8"><path d="M15.4,30.8c8.5,0,15.4-6.9,15.4-15.4S23.9,0,15.4,0,0,6.9,0,15.4s6.9,15.4,15.4,15.4Zm6.2-16.1c.5,1.2,.8,2.1,1.1,3.1,.8,2.6,.5,3.6,.3,3.7-.4,.1-1.6-1.9-1.6-1.9,0,1.1-.6,2.6-1.9,3.7,.6,.2,2,.7,1.7,1.3-.3,.5-4.6,.3-5.8,.1-1.2,.1-5.6,.3-5.8-.1-.3-.6,1.1-1.1,1.7-1.3-1.3-1.1-1.9-2.6-1.9-3.7,0,0-1.2,2-1.6,1.9-.2,0-.5-1.1,.3-3.7,.3-1,.7-1.9,1.2-3.1,.1-.2,.2-.5,.3-.8-.2-4.3,1.6-7.9,5.8-7.9s6,3.5,5.9,7.9c.1,.3,.2,.5,.3,.8Zm7.8,.7c0,7.73-6.27,14-14,14S1.4,23.13,1.4,15.4,7.67,1.4,15.4,1.4s14,6.27,14,14Z" fill="#6c757d" fill-rule="evenodd"/></svg>
