<svg xmlns="http://www.w3.org/2000/svg" xmlns:xlink="http://www.w3.org/1999/xlink" width="31.5" height="31.5" viewBox="0 0 31.5 31.5" fill="none">
<path d="M15.75 0C7.05 0 0 7.05 0 15.75C0 24.45 7.05 31.5 15.75 31.5C24.45 31.5 31.5 24.45 31.5 15.75C31.5 7.05 24.45 0 15.75 0ZM15.75 30.25C7.75 30.25 1.25 23.75 1.25 15.75C1.25 7.75 7.75 1.25 15.75 1.25C23.75 1.25 30.25 7.75 30.25 15.75C30.25 23.75 23.75 30.25 15.75 30.25Z"   fill="#6C757D" >
</path>
<path d="M22.4416 5.34317C22.4729 5.37453 22.5027 5.40736 22.5308 5.44165C22.559 5.47593 22.5854 5.51151 22.61 5.54839C22.6346 5.58528 22.6575 5.62327 22.6784 5.66239C22.6993 5.70151 22.7181 5.74156 22.7351 5.78254C22.7522 5.82352 22.7671 5.86523 22.78 5.90768C22.7929 5.95013 22.8036 5.99311 22.8123 6.03661C22.8209 6.08012 22.8274 6.12394 22.8318 6.16809C22.8361 6.21223 22.8383 6.25649 22.8383 6.30084C22.8383 6.3452 22.8361 6.38945 22.8318 6.43359C22.8274 6.47773 22.8209 6.52155 22.8123 6.56506C22.8036 6.60857 22.7929 6.65154 22.78 6.69399C22.7671 6.73644 22.7522 6.77816 22.7351 6.81914C22.7181 6.86012 22.6993 6.90017 22.6784 6.93929C22.6575 6.97841 22.6346 7.01641 22.61 7.05329C22.5854 7.09016 22.559 7.12575 22.5308 7.16003C22.5027 7.19433 22.4729 7.22715 22.4416 7.2585L21.2033 8.49567L22.4708 8.49567C22.604 8.49567 22.7367 8.50219 22.869 8.51523C23.0015 8.52829 23.1329 8.5478 23.2635 8.57376C23.394 8.59972 23.5229 8.63203 23.6502 8.67066C23.7776 8.70929 23.9028 8.75408 24.0257 8.80502C24.1487 8.85595 24.2688 8.91278 24.3861 8.97552C24.5035 9.03827 24.6175 9.1066 24.7281 9.18055C24.8388 9.2545 24.9456 9.33368 25.0484 9.41812C25.1512 9.50255 25.2497 9.59183 25.3438 9.68593C25.438 9.78005 25.5271 9.87854 25.6115 9.98142C25.6959 10.0843 25.7751 10.1911 25.8491 10.3017C25.923 10.4124 25.9912 10.5264 26.0539 10.6438C26.1167 10.7612 26.1735 10.8813 26.2243 11.0043C26.2753 11.1272 26.32 11.2524 26.3587 11.3797C26.3972 11.5071 26.4295 11.636 26.4554 11.7665C26.4813 11.8971 26.5008 12.0286 26.5138 12.161C26.5268 12.2934 26.5333 12.4262 26.5333 12.5593L26.5333 20.6843C26.5333 20.8173 26.5268 20.95 26.5137 21.0825C26.5007 21.2149 26.4812 21.3463 26.4552 21.4769C26.4293 21.6073 26.397 21.7362 26.3583 21.8636C26.3197 21.9909 26.2749 22.116 26.224 22.239C26.1731 22.3618 26.1163 22.482 26.0536 22.5993C25.9909 22.7166 25.9226 22.8306 25.8486 22.9413C25.7748 23.0519 25.6956 23.1586 25.6112 23.2615C25.5268 23.3643 25.4375 23.4628 25.3434 23.557C25.2493 23.651 25.1509 23.7402 25.0481 23.8247C24.9452 23.909 24.8384 23.9882 24.7278 24.0621C24.6172 24.136 24.5031 24.2044 24.3858 24.2671C24.2685 24.3297 24.1485 24.3866 24.0255 24.4375C23.9025 24.4884 23.7774 24.5332 23.6501 24.5718C23.5228 24.6104 23.3939 24.6427 23.2634 24.6687C23.1328 24.6947 23.0014 24.7142 22.869 24.7272C22.7366 24.7402 22.6038 24.7468 22.4708 24.7468L8.92915 24.7468C8.79609 24.7468 8.66336 24.7402 8.53096 24.7272C8.39854 24.7142 8.26709 24.6947 8.13659 24.6687C8.00611 24.6427 7.87719 24.6104 7.74986 24.5718C7.62254 24.5332 7.49743 24.4884 7.3745 24.4375C7.25157 24.3866 7.13143 24.3297 7.0141 24.2671C6.89676 24.2044 6.78277 24.136 6.67214 24.0621C6.56151 23.9882 6.45477 23.909 6.35193 23.8247C6.24908 23.7402 6.15062 23.651 6.05653 23.557C5.96244 23.4628 5.8732 23.3643 5.78879 23.2615C5.70439 23.1586 5.62522 23.0519 5.55131 22.9413C5.47739 22.8306 5.40907 22.7166 5.34635 22.5993C5.28362 22.482 5.2268 22.3618 5.17589 22.239C5.12497 22.116 5.0802 21.9909 5.04158 21.8636C5.00296 21.7362 4.97067 21.6073 4.94471 21.4769C4.91875 21.3463 4.89925 21.2149 4.88621 21.0825C4.87317 20.95 4.86665 20.8173 4.86665 20.6843L4.86665 12.5593C4.86665 12.4262 4.87317 12.2935 4.88621 12.1611C4.89925 12.0287 4.91875 11.8972 4.94471 11.7667C4.97067 11.6362 5.00296 11.5073 5.04158 11.38C5.0802 11.2527 5.12497 11.1275 5.17589 11.0046C5.2268 10.8817 5.28362 10.7615 5.34635 10.6442C5.40907 10.5269 5.47739 10.4129 5.55131 10.3022C5.62522 10.1916 5.70439 10.0849 5.78879 9.98203C5.8732 9.87918 5.96244 9.78072 6.05653 9.68663C6.15062 9.59255 6.24908 9.50331 6.35193 9.4189C6.45477 9.33449 6.56151 9.25533 6.67214 9.18141C6.78277 9.10749 6.89676 9.03918 7.0141 8.97645C7.13143 8.91373 7.25157 8.85691 7.3745 8.80599C7.49743 8.75507 7.62254 8.71031 7.74986 8.67168C7.87719 8.63307 8.00611 8.60077 8.13659 8.57481C8.26709 8.54885 8.39854 8.52936 8.53096 8.51632C8.66336 8.50327 8.79609 8.49675 8.92915 8.49675L10.1923 8.49675L8.95623 7.25959C8.92397 7.22845 8.89333 7.19578 8.86431 7.16159C8.83529 7.12741 8.80804 7.09186 8.78255 7.05497C8.75706 7.01808 8.73347 6.98001 8.71176 6.94077C8.69006 6.90153 8.67035 6.86132 8.65264 6.82012C8.63493 6.77892 8.61929 6.73694 8.60575 6.6942C8.59221 6.65145 8.58082 6.60814 8.57158 6.56425C8.56234 6.52037 8.5553 6.47615 8.55046 6.43156C8.54562 6.38699 8.54299 6.34229 8.54259 6.29744C8.54219 6.2526 8.54401 6.20784 8.54805 6.16319C8.55209 6.11853 8.55834 6.07418 8.5668 6.03013C8.57524 5.9861 8.58585 5.94259 8.59862 5.89961C8.6114 5.85662 8.62626 5.81437 8.64324 5.77287C8.6602 5.73135 8.67918 5.69079 8.70019 5.65117C8.72118 5.61155 8.74409 5.57306 8.76891 5.53572C8.79373 5.49837 8.82035 5.46235 8.84874 5.42764C8.87715 5.39294 8.9072 5.35973 8.9389 5.32802C8.9706 5.2963 9.00379 5.26623 9.03848 5.23781C9.07316 5.20939 9.10917 5.18276 9.1465 5.15791C9.18383 5.13307 9.2223 5.11014 9.26192 5.08912C9.30152 5.0681 9.34207 5.04909 9.38357 5.03211C9.42508 5.01511 9.46732 5.00022 9.51029 4.98742C9.55327 4.97462 9.59677 4.96399 9.64081 4.95551C9.68485 4.94704 9.72919 4.94077 9.77384 4.9367C9.81851 4.93263 9.86325 4.93079 9.90809 4.93116C9.95293 4.93154 9.99765 4.93414 10.0422 4.93896C10.0868 4.94378 10.131 4.9508 10.1749 4.96001C10.2188 4.96922 10.2621 4.98058 10.3049 4.9941C10.3477 5.00762 10.3896 5.02322 10.4308 5.0409C10.472 5.0586 10.5123 5.07829 10.5515 5.09997C10.5908 5.12165 10.6289 5.14522 10.6658 5.17069C10.7027 5.19616 10.7382 5.22339 10.7724 5.25239C10.8066 5.28139 10.8393 5.31201 10.8705 5.34426L13.7435 8.21725C13.8291 8.30284 13.9006 8.396 13.958 8.49567L17.4387 8.49567C17.4961 8.396 17.5687 8.30067 17.6543 8.21617L20.5262 5.34317C20.5575 5.3118 20.5904 5.28204 20.6247 5.2539C20.659 5.22576 20.6946 5.19937 20.7314 5.17472C20.7684 5.15007 20.8064 5.12729 20.8455 5.10637C20.8846 5.08546 20.9246 5.06652 20.9656 5.04954C21.0066 5.03256 21.0483 5.01763 21.0908 5.00475C21.1332 4.99188 21.1762 4.98111 21.2197 4.97245C21.2631 4.9638 21.307 4.9573 21.3512 4.95295C21.3953 4.9486 21.4396 4.94643 21.4839 4.94643C21.5282 4.94643 21.5725 4.9486 21.6166 4.95295C21.6608 4.9573 21.7047 4.9638 21.7481 4.97245C21.7916 4.98111 21.8346 4.99188 21.877 5.00475C21.9195 5.01763 21.9612 5.03256 22.0022 5.04954C22.0432 5.06652 22.0832 5.08546 22.1223 5.10637C22.1614 5.12729 22.1994 5.15007 22.2364 5.17472C22.2732 5.19937 22.3087 5.22576 22.3431 5.25391C22.3774 5.28205 22.4103 5.3118 22.4416 5.34317ZM22.4708 11.2148L8.92915 11.2148C8.84445 11.2148 8.7605 11.2227 8.67726 11.2384C8.59404 11.2541 8.51301 11.2774 8.43416 11.3083C8.35531 11.3393 8.28003 11.3773 8.20831 11.4223C8.13659 11.4674 8.06969 11.5187 8.0076 11.5763C7.94551 11.6339 7.88932 11.6968 7.83903 11.7649C7.78874 11.8331 7.74523 11.9053 7.70849 11.9816C7.67176 12.058 7.64243 12.137 7.62054 12.2188C7.59864 12.3006 7.58454 12.3838 7.57823 12.4683L7.57498 12.5701L7.57498 20.6951C7.57498 21.409 8.12748 21.994 8.8284 22.045L8.92915 22.0493L22.4708 22.0493C22.5555 22.0493 22.6395 22.0414 22.7227 22.0258C22.8059 22.01 22.8869 21.9867 22.9658 21.9558C23.0447 21.9248 23.1199 21.8869 23.1917 21.8418C23.2634 21.7968 23.3303 21.7454 23.3924 21.6878C23.4545 21.6301 23.5106 21.5673 23.561 21.4992C23.6112 21.4309 23.6548 21.3588 23.6915 21.2825C23.7282 21.2061 23.7575 21.127 23.7795 21.0453C23.8014 20.9634 23.8154 20.8803 23.8217 20.7959L23.825 20.6951L23.825 12.5701C23.825 11.8226 23.2183 11.2159 22.4708 11.2159L22.4708 11.2148ZM11.6375 13.9232C12.385 13.9232 12.9916 14.5298 12.9916 15.2773L12.9916 16.6315C12.9916 16.6758 12.9895 16.7201 12.9851 16.7643C12.9808 16.8083 12.9743 16.8522 12.9656 16.8958C12.957 16.9392 12.9462 16.9822 12.9333 17.0247C12.9205 17.067 12.9055 17.1087 12.8886 17.1498C12.8716 17.1908 12.8527 17.2307 12.8317 17.2698C12.8108 17.309 12.7881 17.347 12.7634 17.3839C12.7388 17.4207 12.7124 17.4563 12.6843 17.4906C12.6561 17.5249 12.6264 17.5577 12.595 17.5891C12.5637 17.6204 12.5308 17.6502 12.4966 17.6784C12.4623 17.7064 12.4267 17.7327 12.3898 17.7575C12.3529 17.7822 12.3149 17.8049 12.2758 17.8258C12.2367 17.8466 12.1967 17.8656 12.1557 17.8826C12.1147 17.8996 12.073 17.9145 12.0306 17.9274C11.9881 17.9402 11.9452 17.951 11.9017 17.9597C11.8582 17.9684 11.8143 17.9749 11.7702 17.9792C11.7261 17.9835 11.6818 17.9857 11.6375 17.9857C11.5931 17.9857 11.5489 17.9835 11.5048 17.9792C11.4606 17.9749 11.4168 17.9684 11.3733 17.9597C11.3298 17.951 11.2868 17.9402 11.2444 17.9274C11.2019 17.9145 11.1602 17.8996 11.1193 17.8826C11.0783 17.8656 11.0382 17.8466 10.9991 17.8258C10.96 17.8049 10.922 17.7822 10.8851 17.7575C10.8483 17.7327 10.8127 17.7064 10.7784 17.6784C10.7441 17.6502 10.7113 17.6204 10.6799 17.5891C10.6486 17.5577 10.6188 17.5249 10.5907 17.4906C10.5626 17.4563 10.5362 17.4207 10.5115 17.3839C10.4869 17.347 10.4641 17.309 10.4432 17.2698C10.4223 17.2307 10.4034 17.1908 10.3864 17.1498C10.3694 17.1087 10.3545 17.067 10.3416 17.0247C10.3287 16.9822 10.318 16.9392 10.3093 16.8958C10.3007 16.8522 10.2942 16.8083 10.2898 16.7643C10.2855 16.7201 10.2833 16.6758 10.2833 16.6315L10.2833 15.2773C10.2833 14.5298 10.89 13.9232 11.6375 13.9232ZM19.7625 13.9232C20.51 13.9232 21.1166 14.5298 21.1166 15.2773L21.1166 16.6315C21.1166 16.6758 21.1145 16.7201 21.1101 16.7643C21.1058 16.8083 21.0993 16.8522 21.0906 16.8958C21.082 16.9392 21.0713 16.9822 21.0584 17.0247C21.0455 17.067 21.0305 17.1087 21.0135 17.1498C20.9965 17.1908 20.9777 17.2307 20.9567 17.2698C20.9358 17.309 20.9131 17.347 20.8884 17.3839C20.8638 17.4207 20.8374 17.4563 20.8093 17.4906C20.7811 17.5249 20.7513 17.5577 20.72 17.5891C20.6887 17.6204 20.6559 17.6502 20.6216 17.6784C20.5872 17.7064 20.5517 17.7327 20.5149 17.7575C20.4779 17.7822 20.4399 17.8049 20.4008 17.8258C20.3617 17.8466 20.3217 17.8656 20.2807 17.8826C20.2397 17.8996 20.198 17.9145 20.1556 17.9274C20.1132 17.9402 20.0701 17.951 20.0267 17.9597C19.9832 17.9684 19.9393 17.9749 19.8952 17.9792C19.8511 17.9835 19.8068 17.9857 19.7625 17.9857C19.7182 17.9857 19.6739 17.9835 19.6298 17.9792C19.5857 17.9749 19.5418 17.9684 19.4983 17.9597C19.4548 17.951 19.4118 17.9402 19.3693 17.9274C19.327 17.9145 19.2853 17.8996 19.2442 17.8826C19.2033 17.8656 19.1633 17.8466 19.1242 17.8258C19.0851 17.8049 19.047 17.7822 19.0101 17.7575C18.9733 17.7327 18.9377 17.7064 18.9034 17.6784C18.8691 17.6502 18.8362 17.6204 18.8049 17.5891C18.7736 17.5577 18.7438 17.5249 18.7157 17.4906C18.6876 17.4563 18.6612 17.4207 18.6366 17.3839C18.6119 17.347 18.5891 17.309 18.5682 17.2698C18.5473 17.2307 18.5283 17.1908 18.5113 17.1498C18.4943 17.1087 18.4795 17.067 18.4666 17.0247C18.4537 16.9822 18.443 16.9392 18.4343 16.8958C18.4256 16.8522 18.4191 16.8083 18.4148 16.7643C18.4105 16.7201 18.4083 16.6758 18.4083 16.6315L18.4083 15.2773C18.4083 14.5298 19.015 13.9232 19.7625 13.9232Z"   fill="#6C757D" >
</path>
</svg>
